<?xml version="1.0" encoding="utf-8"?>
<!-- Generator: Adobe Illustrator 25.3.1, SVG Export Plug-In . SVG Version: 6.00 Build 0)  -->
<svg version="1.1" id="Layer_1" xmlns="http://www.w3.org/2000/svg" xmlns:xlink="http://www.w3.org/1999/xlink" x="0px" y="0px"
	 viewBox="0 0 291.3 291.3" style="enable-background:new 0 0 291.3 291.3;" xml:space="preserve">
<style type="text/css">
	.st0{fill:#1D1D1B;}
	.st1{fill:#FFFFFF;}
</style>
<ellipse class="st0" cx="144.7" cy="150" rx="107.6" ry="101.4"/>
<path class="st1" d="M145.7,0C65.2,0,0,65.2,0,145.7c0,80.4,65.2,145.7,145.7,145.7s145.7-65.2,145.7-145.7
	C291.3,65.2,226.1,0,145.7,0z M182.2,100.3h-18.8c-5.1,0-8.6,4.3-8.6,9.6v8.4h26.8l-4.3,27.2h-22.5v72.8h-27.4v-72.8h-18.2v-27.2
	h18.2v-13.8h0.1c0.5-15.8,6-30.8,32.7-31.8v-0.1h22.1L182.2,100.3L182.2,100.3z"/>
</svg>
